<svg width="461" height="714" viewBox="0 0 461 714" fill="none" xmlns="http://www.w3.org/2000/svg">
<rect x="45.2148" y="7.59131" width="33.7077" height="411.408" rx="16.8539" fill="black"/>
<rect x="247" y="8" width="34" height="289" rx="17" fill="black"/>
<rect x="113" y="8" width="33" height="341" rx="16.5" fill="black"/>
<rect x="315" y="8" width="34" height="341" rx="17" fill="black"/>
<rect x="180" y="8" width="34" height="289" rx="17" fill="black"/>
<rect x="382.292" y="7.59131" width="33.7077" height="411.408" rx="16.8539" fill="black"/>
<rect x="416" width="104" height="365.563" rx="26" transform="rotate(90 416 0)" fill="black"/>
<path fill-rule="evenodd" clip-rule="evenodd" d="M230.5 714C357.802 714 461 610.802 461 483.5C461 356.198 357.802 253 230.5 253C103.198 253 2.08804e-05 356.198 8.99229e-06 483.5C-2.8958e-06 610.802 103.198 714 230.5 714ZM230.5 629C310.857 629 376 564.081 376 484C376 403.919 310.857 339 230.5 339C150.143 339 85 403.919 85 484C85 564.081 150.143 629 230.5 629Z" fill="black"/>
</svg>
